<svg width="100" height="100" viewBox="0 0 100 100" fill="none" xmlns="http://www.w3.org/2000/svg">
<g filter="url(#filter0_d_11_9)">
<path d="M65.4583 52.9583C69.5433 49.7444 72.5249 45.3372 73.9885 40.3498C75.452 35.3624 75.3246 30.0428 73.6241 25.1311C71.9235 20.2195 68.7344 15.96 64.5003 12.9452C60.2662 9.9305 55.1977 8.31044 50 8.31044C44.8023 8.31044 39.7338 9.9305 35.4997 12.9452C31.2656 15.96 28.0764 20.2195 26.3759 25.1311C24.6753 30.0428 24.548 35.3624 26.0115 40.3498C27.475 45.3372 30.4567 49.7444 34.5417 52.9583C27.542 55.7627 21.4345 60.414 16.8704 66.4163C12.3062 72.4187 9.4565 79.5471 8.62499 87.0417C8.5648 87.5888 8.61297 88.1425 8.76676 88.6711C8.92055 89.1996 9.17693 89.6927 9.52128 90.1222C10.2167 90.9896 11.2283 91.5451 12.3333 91.6667C13.4384 91.7882 14.5465 91.4658 15.4138 90.7704C16.2812 90.0749 16.8368 89.0634 16.9583 87.9583C17.8733 79.8133 21.757 72.2909 27.8676 66.8283C33.9781 61.3657 41.8871 58.346 50.0833 58.346C58.2796 58.346 66.1885 61.3657 72.2991 66.8283C78.4096 72.2909 82.2934 79.8133 83.2083 87.9583C83.3216 88.9822 83.8101 89.9277 84.5796 90.6126C85.3491 91.2974 86.3449 91.6729 87.375 91.6667H87.8333C88.9255 91.541 89.9238 90.9887 90.6106 90.1302C91.2975 89.2717 91.6171 88.1765 91.5 87.0833C90.6645 79.5675 87.7995 72.4208 83.2119 66.4092C78.6243 60.3976 72.4871 55.7478 65.4583 52.9583ZM50 50C46.7036 50 43.4813 49.0225 40.7405 47.1912C37.9997 45.3598 35.8635 42.7568 34.602 39.7114C33.3405 36.666 33.0105 33.3149 33.6536 30.0818C34.2966 26.8488 35.884 23.8791 38.2149 21.5482C40.5457 19.2174 43.5155 17.63 46.7485 16.9869C49.9815 16.3438 53.3326 16.6739 56.378 17.9353C59.4235 19.1968 62.0265 21.333 63.8578 24.0738C65.6892 26.8147 66.6667 30.037 66.6667 33.3333C66.6667 37.7536 64.9107 41.9929 61.7851 45.1185C58.6595 48.2441 54.4203 50 50 50Z" fill="url(#paint0_linear_11_9)"/>
</g>
<defs>
<filter id="filter0_d_11_9" x="4.59985" y="8.31044" width="90.9238" height="91.3814" filterUnits="userSpaceOnUse" color-interpolation-filters="sRGB">
<feFlood flood-opacity="0" result="BackgroundImageFix"/>
<feColorMatrix in="SourceAlpha" type="matrix" values="0 0 0 0 0 0 0 0 0 0 0 0 0 0 0 0 0 0 127 0" result="hardAlpha"/>
<feOffset dy="4"/>
<feGaussianBlur stdDeviation="2"/>
<feComposite in2="hardAlpha" operator="out"/>
<feColorMatrix type="matrix" values="0 0 0 0 0 0 0 0 0 0 0 0 0 0 0 0 0 0 0.25 0"/>
<feBlend mode="normal" in2="BackgroundImageFix" result="effect1_dropShadow_11_9"/>
<feBlend mode="normal" in="SourceGraphic" in2="effect1_dropShadow_11_9" result="shape"/>
</filter>
<linearGradient id="paint0_linear_11_9" x1="50.0618" y1="8.31044" x2="50.0618" y2="91.6918" gradientUnits="userSpaceOnUse">
<stop stop-color="#01E677"/>
<stop offset="1" stop-color="#24636B"/>
</linearGradient>
</defs>
</svg>
